<svg width="119" height="115" viewBox="0 0 119 115" fill="none" xmlns="http://www.w3.org/2000/svg">
<g id="Message Notification" opacity="0.3" clip-path="url(#clip0_7423_29541)">
<path id="Vector" d="M112.938 35.809C112.938 34.8373 112.746 33.8752 112.374 32.9775C112.002 32.0798 111.457 31.2641 110.77 30.577C110.083 29.8899 109.268 29.3449 108.37 28.9731C107.472 28.6012 106.51 28.4099 105.538 28.4099H24.148C23.1763 28.4099 22.2142 28.6012 21.3165 28.9731C20.4188 29.3449 19.6031 29.8899 18.916 30.577C18.2289 31.2641 17.6839 32.0798 17.3121 32.9775C16.9402 33.8752 16.7488 34.8373 16.7488 35.809V93.1522C16.7488 95.1146 17.5284 96.9966 18.916 98.3842C20.3036 99.7718 22.1856 100.551 24.148 100.551H50.0449V108.743C50.045 109.589 50.2958 110.415 50.7657 111.118C51.2355 111.821 51.9032 112.369 52.6844 112.693C53.4656 113.016 54.3252 113.101 55.1546 112.936C55.9839 112.771 56.7457 112.364 57.3436 111.766L68.5427 100.565H105.538C107.501 100.565 109.383 99.785 110.77 98.3974C112.158 97.0098 112.938 95.1278 112.938 93.1654V35.809Z" fill="white" stroke="#5A616C" stroke-width="4" stroke-linejoin="round"/>
<path id="Vector_2" d="M55.2207 28.4062C55.2207 35.2108 52.5176 41.7366 47.7061 46.5481C42.8946 51.3596 36.3687 54.0627 29.5642 54.0627C22.7597 54.0627 16.2339 51.3596 11.4224 46.5481C6.61084 41.7366 3.90775 35.2108 3.90775 28.4062C3.90775 21.6017 6.61084 15.0759 11.4224 10.2644C16.2339 5.45284 22.7597 2.74976 29.5642 2.74976C36.3687 2.74976 42.8946 5.45284 47.7061 10.2644C52.5176 15.0759 55.2207 21.6017 55.2207 28.4062Z" fill="white"/>
<path id="Vector_3" d="M55.2207 28.4062C55.2207 35.2108 52.5176 41.7366 47.7061 46.5481C42.8946 51.3596 36.3687 54.0627 29.5642 54.0627C22.7597 54.0627 16.2339 51.3596 11.4224 46.5481C6.61084 41.7366 3.90775 35.2108 3.90775 28.4062C3.90775 21.6017 6.61084 15.0759 11.4224 10.2644C16.2339 5.45284 22.7597 2.74976 29.5642 2.74976C36.3687 2.74976 42.8946 5.45284 47.7061 10.2644C52.5176 15.0759 55.2207 21.6017 55.2207 28.4062Z" stroke="#5A616C" stroke-width="4" stroke-linecap="round" stroke-linejoin="round"/>
<path id="Vector_4" d="M29.5762 13.4343V26.2638" stroke="#5A616C" stroke-width="4" stroke-linecap="round" stroke-linejoin="round"/>
<path id="Vector_5" d="M33.8379 40.1613C33.8379 40.7227 33.7273 41.2787 33.5124 41.7975C33.2976 42.3162 32.9826 42.7876 32.5856 43.1846C32.1885 43.5816 31.7172 43.8966 31.1985 44.1114C30.6797 44.3263 30.1237 44.4369 29.5623 44.4369C29.0008 44.4369 28.4448 44.3263 27.926 44.1114C27.4073 43.8966 26.9359 43.5816 26.5389 43.1846C26.1419 42.7876 25.8269 42.3162 25.6121 41.7975C25.3972 41.2787 25.2866 40.7227 25.2866 40.1613C25.2866 39.5998 25.3972 39.0438 25.6121 38.525C25.8269 38.0063 26.1419 37.535 26.5389 37.1379C26.9359 36.7409 27.4073 36.426 27.926 36.2111C28.4448 35.9962 29.0008 35.8856 29.5623 35.8856C30.1237 35.8856 30.6797 35.9962 31.1985 36.2111C31.7172 36.426 32.1885 36.7409 32.5856 37.1379C32.9826 37.535 33.2976 38.0063 33.5124 38.525C33.7273 39.0438 33.8379 39.5998 33.8379 40.1613Z" fill="#5A616C"/>
<path id="Vector_6" d="M95.834 54.0632H55.2101" stroke="#5A616C" stroke-width="4" stroke-linecap="round" stroke-linejoin="round"/>
<path id="Vector_7" d="M95.834 66.8862H40.2428" stroke="#5A616C" stroke-width="4" stroke-linecap="round" stroke-linejoin="round"/>
<path id="Vector_8" d="M95.834 79.7166H40.2428" stroke="#5A616C" stroke-width="4" stroke-linecap="round" stroke-linejoin="round"/>
</g>
<defs>
<clipPath id="clip0_7423_29541">
<rect width="117.446" height="115" fill="white" transform="matrix(-1 0 0 1 118.223 0)"/>
</clipPath>
</defs>
</svg>
